<svg width="17" height="4" viewBox="0 0 17 4" fill="none" xmlns="http://www.w3.org/2000/svg">
<path d="M14.9521 3.26624H14.8397C14.2306 3.26624 13.7188 2.7666 13.6746 2.12891C13.6302 1.46021 14.1187 0.878052 14.7637 0.834106C14.7891 0.832397 14.8156 0.831543 14.8417 0.831543C15.4587 0.831543 15.9755 1.32141 16.0213 1.94824C16.0331 2.19666 15.9926 2.5509 15.7371 2.84338L15.7312 2.85022L15.7254 2.85706C15.5287 3.0907 15.2619 3.23157 14.9521 3.26624ZM1.22003 3.25989C0.569458 3.25989 0.0402222 2.71692 0.0402222 2.04956C0.0402222 1.38269 0.569458 0.840088 1.22003 0.840088C1.87061 0.840088 2.39984 1.38269 2.39984 2.04956C2.39984 2.71692 1.87061 3.25989 1.22003 3.25989Z" fill="white"/>
</svg>
